<svg width="318" height="126" viewBox="0 0 318 126" fill="none" xmlns="http://www.w3.org/2000/svg">
<g id="banner&#230;&#143;&#146;&#231;&#148;&#187;">
<g id="Group 282">
<g id="&#229;&#143;&#182;&#229;&#173;&#144;" filter="url(#filter0_d_303_5050)">
<path id="Vector 92" d="M198.885 105.723C165.984 94.8634 157.529 64.7815 160.199 48.9211C195.496 59.9865 200.657 92.076 200.657 104.708L198.885 105.723Z" fill="url(#paint0_linear_303_5050)"/>
<path id="Vector 93" d="M160.476 49.29L199.55 104.248" stroke="white" stroke-opacity="0.6" stroke-width="0.5"/>
<path id="Vector 94" d="M164.9 70.6829H175.958" stroke="white" stroke-opacity="0.6" stroke-width="0.5"/>
<path id="Vector 95" d="M175.221 85.8054H186.28" stroke="white" stroke-opacity="0.6" stroke-width="0.5"/>
<path id="Vector 96" d="M181.119 78.0222L184.089 67.3629" stroke="white" stroke-opacity="0.6" stroke-width="0.5"/>
</g>
<g id="Group 164" filter="url(#filter1_d_303_5050)">
<path id="Subtract" fill-rule="evenodd" clip-rule="evenodd" d="M8.88605 43.2163C8.88605 36.5889 14.2586 31.2163 20.886 31.2163H101.904C108.531 31.2163 113.904 36.5889 113.904 43.2163V110.887H8.88605V43.2163ZM15.0636 43.3974C15.0636 40.0837 17.7499 37.3974 21.0636 37.3974H102.413C105.726 37.3974 108.413 40.0837 108.413 43.3974V91.1503C108.413 94.464 105.726 97.1503 102.413 97.1503H21.0636C17.7499 97.1503 15.0636 94.464 15.0636 91.1503V43.3974ZM61.3949 106.766C63.1008 106.766 64.4837 105.382 64.4837 103.675C64.4837 101.968 63.1008 100.584 61.3949 100.584C59.689 100.584 58.3061 101.968 58.3061 103.675C58.3061 105.382 59.689 106.766 61.3949 106.766Z" fill="#A2A3FD"/>
<rect id="Rectangle 440" x="2.70857" y="104.019" width="117.373" height="6.86815" rx="3.43407" fill="#9897FD"/>
</g>
<g id="Group 158" filter="url(#filter2_d_303_5050)">
<g id="Group 157">
<path id="Rectangle 411" d="M262.215 26.1511C262.215 22.8374 259.529 20.1511 256.215 20.1511H194.389V102.887C194.389 107.305 197.971 110.887 202.389 110.887H262.215V26.1511Z" fill="#F2F4FF"/>
<rect id="Rectangle 413" width="16.2191" height="8.85228" transform="matrix(-1 0 0 1 204.711 20.1511)" fill="#F2F4FF"/>
</g>
<path id="Rectangle 412" d="M182.594 26.049C182.594 22.7917 185.234 20.1511 188.491 20.1511V20.1511C191.749 20.1511 194.389 22.7917 194.389 26.049V34.9049H182.594V26.049Z" fill="#BBB0FF"/>
<path id="Subtract_2" fill-rule="evenodd" clip-rule="evenodd" d="M268.113 98.3459H199.55V98.3463H205.448V104.989C205.448 108.224 202.843 110.851 199.616 110.887H260.113C264.531 110.887 268.113 107.305 268.113 102.887V98.3459Z" fill="white"/>
<rect id="Rectangle 417" x="202.499" y="34.167" width="52.3436" height="2.95076" fill="#CBC4FF"/>
<rect id="Rectangle 419" x="202.499" y="51.8716" width="52.3436" height="2.95076" fill="#CBC4FF"/>
<rect id="Rectangle 421" x="202.499" y="69.5762" width="52.3436" height="2.95076" fill="#CBC4FF"/>
<rect id="Rectangle 423" x="202.499" y="87.281" width="19.9053" height="2.95076" fill="#CBC4FF"/>
<rect id="Rectangle 418" x="202.499" y="43.0195" width="52.3436" height="2.95076" fill="#CBC4FF"/>
<rect id="Rectangle 420" x="202.499" y="60.7241" width="52.3436" height="2.95076" fill="#CBC4FF"/>
<rect id="Rectangle 422" x="202.499" y="78.4287" width="52.3436" height="2.95076" fill="#CBC4FF"/>
</g>
<g id="Group 159">
<g id="&#231;&#186;&#184;&#233;&#163;&#158;&#230;&#156;&#186;,&#230;&#138;&#152;&#231;&#186;&#184;,&#229;&#143;&#145;&#233;&#128;&#129; 1" clip-path="url(#clip0_303_5050)">
<path id="Vector" d="M170.611 25.6538L162.328 32.9235C162.224 33.0141 162.097 33.048 161.951 33.0265C161.878 33.0127 161.807 32.9819 161.745 32.9317C161.705 32.8987 161.669 32.853 161.637 32.7963L160.125 30.009C160.042 29.8561 159.87 29.7756 159.7 29.8094L157.338 30.2847C157.202 30.315 157.079 30.2824 156.966 30.1906C156.919 30.1521 156.885 30.1115 156.863 30.0689C156.815 29.9864 156.793 29.8997 156.801 29.8037C156.808 29.7087 156.84 29.6245 156.901 29.5506L158.284 27.8582C158.4 27.7162 158.561 27.6199 158.74 27.5826L167.941 25.7081L158.063 25.9828C157.989 25.9842 157.919 25.9445 157.884 25.8792L156.504 23.329C156.41 23.1675 156.418 23.0072 156.532 22.8478C156.644 22.6957 156.791 22.6351 156.973 22.6671L170.387 24.8659C170.47 24.8778 170.54 24.9095 170.602 24.9606C170.676 25.021 170.725 25.0963 170.75 25.1844C170.801 25.3705 170.752 25.5269 170.611 25.6538V25.6538Z" fill="url(#paint1_linear_303_5050)"/>
</g>
<path id="Vector 97" d="M155.316 29.741C147.847 30.9833 132.41 35.3316 130.418 42.7857C127.928 52.1033 141.871 49.4944 142.867 46.14C143.863 42.7857 138.385 36.8224 121.953 42.7857C108.807 47.5563 98.5489 62.6268 98.5489 68.8385" stroke="white" stroke-dasharray="2 2"/>
</g>
<g id="Group 161" filter="url(#filter3_d_303_5050)">
<g id="Subtract_3" filter="url(#filter4_d_303_5050)">
<path fill-rule="evenodd" clip-rule="evenodd" d="M249.945 42.2817C249.392 42.2817 248.945 42.7295 248.945 43.2817V72.2647C248.945 72.817 249.392 73.2647 249.945 73.2647H272.536L272.536 73.2646L275.958 68.8384L279.908 65.8877V43.2817C279.908 42.7295 279.461 42.2817 278.908 42.2817H249.945Z" fill="#FFE062"/>
</g>
<path id="Subtract_4" fill-rule="evenodd" clip-rule="evenodd" d="M279.908 65.8877H272.536V73.2646L279.908 65.8877Z" fill="#F4A937"/>
<rect id="Rectangle 426" x="254.843" y="50.3965" width="19.9053" height="1.47538" fill="white"/>
<rect id="Rectangle 427" x="254.843" y="54.8228" width="19.9053" height="1.47538" fill="white"/>
<rect id="Rectangle 428" x="254.843" y="59.2485" width="12.533" height="1.47538" fill="white"/>
</g>
<g id="Group 160">
<path id="Rectangle 429" d="M188.896 50.3965H203.333L205.448 52.9784L203.333 55.5603H188.896V50.3965Z" fill="#FFB03A"/>
<path id="Rectangle 430" d="M184.068 40.8066H198.505L200.62 43.3886L198.505 45.9705H184.068V40.8066Z" fill="#F5693C"/>
</g>
<g id="Group 287">
<g id="Group 163" opacity="0.4">
<path id="B" opacity="0.6" d="M291.599 21.4919L298.014 36.5207L304.914 33.5719C306.513 32.8886 307.649 32.0545 308.281 31.0875C309.006 29.9314 309.056 28.591 308.409 27.0755C307.978 26.0652 307.375 25.3522 306.64 24.9696C305.874 24.5749 304.967 24.4897 303.898 24.7228C304.529 24.1045 304.927 23.4618 305.093 22.7437C305.241 21.9835 305.146 21.178 304.786 20.336C304.301 19.1994 303.515 18.4651 302.449 18.1242C301.302 17.7682 299.971 17.9138 298.478 18.5521L291.599 21.4919ZM294.923 22.4607L298.73 20.8335C299.74 20.402 300.527 20.2647 301.134 20.4037C301.689 20.5396 302.145 20.9669 302.451 21.6826C302.783 22.4614 302.794 23.1286 302.526 23.6662C302.228 24.1918 301.573 24.6959 300.521 25.1454L296.756 26.7547L294.923 22.4607ZM297.618 28.7753L301.762 27.0042C302.856 26.5368 303.737 26.3846 304.403 26.5477C305.049 26.7198 305.562 27.2223 305.93 28.0853C306.289 28.9272 306.204 29.6604 305.693 30.327C305.293 30.8464 304.62 31.3084 303.694 31.704L299.613 33.4481L297.618 28.7753Z" fill="white"/>
</g>
<g id="Group 162" filter="url(#filter5_d_303_5050)">
<path id="Vector 102" d="M248.069 74.7543L241.045 84.2145L233.653 71.0515L248.069 74.7543Z" fill="url(#paint2_linear_303_5050)"/>
<path id="Vector 103" d="M239.678 72.5694L236.76 76.5541L233.653 71.0515L239.678 72.5694Z" fill="#28286E"/>
<path id="Rectangle 431" d="M248.068 74.754L292.792 107.922L290.971 110.378L246.232 77.2271L248.068 74.754Z" fill="url(#paint3_linear_303_5050)"/>
<path id="Rectangle 433" d="M242.881 81.7416L287.82 114.939L285.999 117.394L241.045 84.2147L242.881 81.7416Z" fill="url(#paint4_linear_303_5050)"/>
<path id="Rectangle 432" d="M246.232 77.2266L290.789 110.203L287.4 114.773L242.882 81.742L246.232 77.2266Z" fill="url(#paint5_linear_303_5050)"/>
<path id="Vector 101" d="M289.283 108.823L292.768 107.94L293.319 111.845L289.824 116.52L286.002 117.401L285.564 113.273L289.283 108.823Z" fill="url(#paint6_linear_303_5050)"/>
</g>
<path id="Union" opacity="0.3" fill-rule="evenodd" clip-rule="evenodd" d="M141.388 96.8708H164.243V99.8216H141.388V96.8708ZM141.389 104.248H153.184V107.198H141.389V104.248ZM164.243 111.625H141.389V114.575H164.243V111.625Z" fill="white"/>
<path id="Union_2" opacity="0.1" fill-rule="evenodd" clip-rule="evenodd" d="M294.733 51.1343H317.587V54.085H294.733V51.1343ZM294.733 58.5111H306.529V61.4618H294.733V58.5111ZM317.587 65.8879H294.733V68.8387H317.587V65.8879Z" fill="white"/>
</g>
<g id="Group 165" opacity="0.3" filter="url(#filter6_d_303_5050)">
<rect id="Rectangle 441" x="29.9861" y="52.6094" width="54.5553" height="4.42614" fill="#E4E7EA"/>
<rect id="Rectangle 442" x="29.9861" y="57.0354" width="54.5553" height="33.1961" fill="white"/>
<ellipse id="Ellipse 134" cx="35.884" cy="54.8224" rx="0.737234" ry="0.73769" fill="#FFBC0F"/>
<ellipse id="Ellipse 135" cx="38.8329" cy="54.8224" rx="0.737234" ry="0.73769" fill="#64BE76"/>
<path id="Vector_2" d="M62.3241 77.0353C62.2638 77.1359 62.1659 77.2085 62.0521 77.2369C61.9382 77.2654 61.8178 77.2474 61.7172 77.187C61.6166 77.1266 61.5441 77.0287 61.5157 76.9148C61.4872 76.8009 61.5052 76.6803 61.5655 76.5797C62.0326 75.8013 62.2785 74.9102 62.277 74.0023C62.277 71.2319 60.0325 68.9861 57.2638 68.9861C54.495 68.9861 52.2506 71.2319 52.2506 74.0023C52.2506 76.7728 54.495 79.0186 57.2638 79.0186C58.171 79.0202 59.0614 78.7742 59.8392 78.3071C59.889 78.2772 59.9442 78.2574 60.0017 78.2488C60.0592 78.2403 60.1177 78.2431 60.1741 78.2572C60.2305 78.2713 60.2835 78.2964 60.3302 78.331C60.3768 78.3656 60.4162 78.409 60.4461 78.4589C60.476 78.5087 60.4958 78.564 60.5043 78.6215C60.5129 78.6789 60.51 78.7376 60.4959 78.794C60.4819 78.8503 60.4568 78.9034 60.4222 78.9501C60.3876 78.9968 60.3442 79.0362 60.2944 79.0661C59.3791 79.6159 58.3313 79.9055 57.2638 79.9039C54.0065 79.9039 51.3659 77.2616 51.3659 74.0023C51.3659 70.7431 54.0065 68.1008 57.2638 68.1008C60.521 68.1008 63.1616 70.7431 63.1616 74.0023C63.1616 75.0853 62.8693 76.1265 62.3241 77.0353V77.0353ZM55.3642 73.6905L56.5301 74.8522L59.1624 72.2142C59.2454 72.1311 59.3578 72.0844 59.4752 72.0843C59.5925 72.0842 59.705 72.1308 59.7881 72.2137C59.8711 72.2967 59.9178 72.4093 59.9179 72.5267C59.9179 72.6441 59.8714 72.7567 59.7885 72.8397L56.844 75.7905C56.7612 75.8735 56.6488 75.9202 56.5316 75.9204C56.4144 75.9206 56.3019 75.8742 56.2188 75.7914L54.7399 74.3176C54.6982 74.2767 54.6651 74.228 54.6423 74.1742C54.6195 74.1204 54.6076 74.0626 54.6073 74.0042C54.6069 73.9458 54.6181 73.8879 54.6403 73.8338C54.6624 73.7798 54.695 73.7306 54.7362 73.6892C54.7774 73.6478 54.8264 73.615 54.8803 73.5927C54.9342 73.5703 54.9921 73.5589 55.0505 73.559C55.1088 73.5591 55.1666 73.5708 55.2205 73.5933C55.2743 73.6159 55.3232 73.6489 55.3642 73.6905V73.6905Z" fill="#54A264"/>
<ellipse id="Ellipse 133" cx="32.935" cy="54.8224" rx="0.737234" ry="0.73769" fill="#F5693C"/>
</g>
<g id="Group 207" filter="url(#filter7_d_303_5050)">
<rect id="Rectangle 441_2" x="38.0957" y="45.9702" width="54.5553" height="4.42614" fill="#E4E7EA"/>
<rect id="Rectangle 442_2" x="38.0957" y="50.3965" width="54.5553" height="33.1961" fill="white"/>
<ellipse id="Ellipse 134_2" cx="43.9936" cy="48.1832" rx="0.737234" ry="0.73769" fill="#FFBC0F"/>
<ellipse id="Ellipse 135_2" cx="46.9425" cy="48.1832" rx="0.737234" ry="0.73769" fill="#64BE76"/>
<path id="Vector_3" d="M70.4338 70.3961C70.3734 70.4968 70.2755 70.5693 70.1617 70.5978C70.0479 70.6262 69.9274 70.6083 69.8268 70.5479C69.7262 70.4875 69.6537 70.3895 69.6253 70.2756C69.5968 70.1617 69.6148 70.0412 69.6752 69.9405C70.1422 69.1622 70.3882 68.2711 70.3866 67.3632C70.3866 64.5927 68.1422 62.3469 65.3734 62.3469C62.6046 62.3469 60.3602 64.5927 60.3602 67.3632C60.3602 70.1337 62.6046 72.3795 65.3734 72.3795C66.2806 72.3811 67.171 72.1351 67.9489 71.6679C67.9987 71.638 68.0539 71.6182 68.1113 71.6096C68.1688 71.6011 68.2274 71.6039 68.2837 71.618C68.3401 71.6321 68.3931 71.6572 68.4398 71.6918C68.4865 71.7264 68.5259 71.7699 68.5557 71.8197C68.5856 71.8696 68.6054 71.9248 68.614 71.9823C68.6225 72.0398 68.6197 72.0984 68.6056 72.1548C68.5915 72.2112 68.5664 72.2642 68.5319 72.3109C68.4973 72.3576 68.4538 72.3971 68.404 72.427C67.4887 72.9767 66.4409 73.2663 65.3734 73.2647C62.1162 73.2647 59.4755 70.6224 59.4755 67.3632C59.4755 64.1039 62.1162 61.4617 65.3734 61.4617C68.6306 61.4617 71.2713 64.1039 71.2713 67.3632C71.2713 68.4461 70.9789 69.4873 70.4338 70.3961V70.3961ZM63.4738 67.0513L64.6397 68.213L67.2721 65.575C67.355 65.492 67.4675 65.4452 67.5848 65.4452C67.7021 65.4451 67.8147 65.4916 67.8977 65.5746C67.9807 65.6575 68.0274 65.7701 68.0275 65.8875C68.0276 66.0049 67.981 66.1175 67.8981 66.2006L64.9536 69.1513C64.8708 69.2344 64.7584 69.2811 64.6412 69.2812C64.524 69.2814 64.4115 69.235 64.3284 69.1522L62.8496 67.6785C62.8079 67.6376 62.7747 67.5888 62.7519 67.535C62.7291 67.4812 62.7172 67.4235 62.7169 67.3651C62.7165 67.3066 62.7278 67.2487 62.7499 67.1947C62.772 67.1406 62.8046 67.0915 62.8458 67.0501C62.887 67.0087 62.936 66.9759 62.9899 66.9535C63.0439 66.9311 63.1017 66.9197 63.1601 66.9198C63.2185 66.9199 63.2763 66.9316 63.3301 66.9542C63.384 66.9767 63.4328 67.0097 63.4738 67.0513V67.0513Z" fill="#54A264"/>
<ellipse id="Ellipse 133_2" cx="41.0447" cy="48.1832" rx="0.737234" ry="0.73769" fill="#F5693C"/>
</g>
</g>
<path id="Subtract_5" fill-rule="evenodd" clip-rule="evenodd" d="M99.3898 126.178L147.358 7.62939e-05H199.624L247.592 126.178H218.482L208.652 98.9514H138.33L128.5 126.178H99.3898ZM146.561 76.2428L173.138 2.20352H174.079L200.42 76.2428H146.561Z" fill="url(#paint7_linear_303_5050)" fill-opacity="0.1"/>
</g>
<defs>
<filter id="filter0_d_303_5050" x="145.739" y="38.9211" width="60.9179" height="76.8022" filterUnits="userSpaceOnUse" color-interpolation-filters="sRGB">
<feFlood flood-opacity="0" result="BackgroundImageFix"/>
<feColorMatrix in="SourceAlpha" type="matrix" values="0 0 0 0 0 0 0 0 0 0 0 0 0 0 0 0 0 0 127 0" result="hardAlpha"/>
<feOffset dx="-4"/>
<feGaussianBlur stdDeviation="5"/>
<feComposite in2="hardAlpha" operator="out"/>
<feColorMatrix type="matrix" values="0 0 0 0 0.458333 0 0 0 0 0.468006 0 0 0 0 1 0 0 0 0.6 0"/>
<feBlend mode="normal" in2="BackgroundImageFix" result="effect1_dropShadow_303_5050"/>
<feBlend mode="normal" in="SourceGraphic" in2="effect1_dropShadow_303_5050" result="shape"/>
</filter>
<filter id="filter1_d_303_5050" x="-17.2914" y="15.2163" width="149.373" height="111.671" filterUnits="userSpaceOnUse" color-interpolation-filters="sRGB">
<feFlood flood-opacity="0" result="BackgroundImageFix"/>
<feColorMatrix in="SourceAlpha" type="matrix" values="0 0 0 0 0 0 0 0 0 0 0 0 0 0 0 0 0 0 127 0" result="hardAlpha"/>
<feOffset dx="-4"/>
<feGaussianBlur stdDeviation="8"/>
<feComposite in2="hardAlpha" operator="out"/>
<feColorMatrix type="matrix" values="0 0 0 0 0.481406 0 0 0 0 0.485925 0 0 0 0 0.9875 0 0 0 0.3 0"/>
<feBlend mode="normal" in2="BackgroundImageFix" result="effect1_dropShadow_303_5050"/>
<feBlend mode="normal" in="SourceGraphic" in2="effect1_dropShadow_303_5050" result="shape"/>
</filter>
<filter id="filter2_d_303_5050" x="174.594" y="16.1511" width="101.519" height="106.736" filterUnits="userSpaceOnUse" color-interpolation-filters="sRGB">
<feFlood flood-opacity="0" result="BackgroundImageFix"/>
<feColorMatrix in="SourceAlpha" type="matrix" values="0 0 0 0 0 0 0 0 0 0 0 0 0 0 0 0 0 0 127 0" result="hardAlpha"/>
<feOffset dy="4"/>
<feGaussianBlur stdDeviation="4"/>
<feComposite in2="hardAlpha" operator="out"/>
<feColorMatrix type="matrix" values="0 0 0 0 0 0 0 0 0 0 0 0 0 0 0 0 0 0 0.1 0"/>
<feBlend mode="normal" in2="BackgroundImageFix" result="effect1_dropShadow_303_5050"/>
<feBlend mode="normal" in="SourceGraphic" in2="effect1_dropShadow_303_5050" result="shape"/>
</filter>
<filter id="filter3_d_303_5050" x="236.945" y="34.2817" width="46.9638" height="46.9829" filterUnits="userSpaceOnUse" color-interpolation-filters="sRGB">
<feFlood flood-opacity="0" result="BackgroundImageFix"/>
<feColorMatrix in="SourceAlpha" type="matrix" values="0 0 0 0 0 0 0 0 0 0 0 0 0 0 0 0 0 0 127 0" result="hardAlpha"/>
<feOffset dx="-4"/>
<feGaussianBlur stdDeviation="4"/>
<feComposite in2="hardAlpha" operator="out"/>
<feColorMatrix type="matrix" values="0 0 0 0 0.658824 0 0 0 0 0.611765 0 0 0 0 1 0 0 0 0.6 0"/>
<feBlend mode="normal" in2="BackgroundImageFix" result="effect1_dropShadow_303_5050"/>
<feBlend mode="normal" in="SourceGraphic" in2="effect1_dropShadow_303_5050" result="shape"/>
</filter>
<filter id="filter4_d_303_5050" x="240.945" y="36.2817" width="46.9638" height="46.9829" filterUnits="userSpaceOnUse" color-interpolation-filters="sRGB">
<feFlood flood-opacity="0" result="BackgroundImageFix"/>
<feColorMatrix in="SourceAlpha" type="matrix" values="0 0 0 0 0 0 0 0 0 0 0 0 0 0 0 0 0 0 127 0" result="hardAlpha"/>
<feOffset dy="2"/>
<feGaussianBlur stdDeviation="4"/>
<feComposite in2="hardAlpha" operator="out"/>
<feColorMatrix type="matrix" values="0 0 0 0 0 0 0 0 0 0 0 0 0 0 0 0 0 0 0.1 0"/>
<feBlend mode="normal" in2="BackgroundImageFix" result="effect1_dropShadow_303_5050"/>
<feBlend mode="normal" in="SourceGraphic" in2="effect1_dropShadow_303_5050" result="shape"/>
</filter>
<filter id="filter5_d_303_5050" x="219.653" y="61.0515" width="79.6658" height="66.3496" filterUnits="userSpaceOnUse" color-interpolation-filters="sRGB">
<feFlood flood-opacity="0" result="BackgroundImageFix"/>
<feColorMatrix in="SourceAlpha" type="matrix" values="0 0 0 0 0 0 0 0 0 0 0 0 0 0 0 0 0 0 127 0" result="hardAlpha"/>
<feOffset dx="-4"/>
<feGaussianBlur stdDeviation="5"/>
<feComposite in2="hardAlpha" operator="out"/>
<feColorMatrix type="matrix" values="0 0 0 0 0.48005 0 0 0 0 0.408333 0 0 0 0 1 0 0 0 0.6 0"/>
<feBlend mode="normal" in2="BackgroundImageFix" result="effect1_dropShadow_303_5050"/>
<feBlend mode="normal" in="SourceGraphic" in2="effect1_dropShadow_303_5050" result="shape"/>
</filter>
<filter id="filter6_d_303_5050" x="21.9861" y="48.6094" width="70.5553" height="53.6221" filterUnits="userSpaceOnUse" color-interpolation-filters="sRGB">
<feFlood flood-opacity="0" result="BackgroundImageFix"/>
<feColorMatrix in="SourceAlpha" type="matrix" values="0 0 0 0 0 0 0 0 0 0 0 0 0 0 0 0 0 0 127 0" result="hardAlpha"/>
<feOffset dy="4"/>
<feGaussianBlur stdDeviation="4"/>
<feComposite in2="hardAlpha" operator="out"/>
<feColorMatrix type="matrix" values="0 0 0 0 0 0 0 0 0 0 0 0 0 0 0 0 0 0 0.15 0"/>
<feBlend mode="normal" in2="BackgroundImageFix" result="effect1_dropShadow_303_5050"/>
<feBlend mode="normal" in="SourceGraphic" in2="effect1_dropShadow_303_5050" result="shape"/>
</filter>
<filter id="filter7_d_303_5050" x="30.0957" y="41.9702" width="70.5553" height="53.6223" filterUnits="userSpaceOnUse" color-interpolation-filters="sRGB">
<feFlood flood-opacity="0" result="BackgroundImageFix"/>
<feColorMatrix in="SourceAlpha" type="matrix" values="0 0 0 0 0 0 0 0 0 0 0 0 0 0 0 0 0 0 127 0" result="hardAlpha"/>
<feOffset dy="4"/>
<feGaussianBlur stdDeviation="4"/>
<feComposite in2="hardAlpha" operator="out"/>
<feColorMatrix type="matrix" values="0 0 0 0 0 0 0 0 0 0 0 0 0 0 0 0 0 0 0.15 0"/>
<feBlend mode="normal" in2="BackgroundImageFix" result="effect1_dropShadow_303_5050"/>
<feBlend mode="normal" in="SourceGraphic" in2="effect1_dropShadow_303_5050" result="shape"/>
</filter>
<linearGradient id="paint0_linear_303_5050" x1="159.739" y1="48.9211" x2="203.269" y2="104.591" gradientUnits="userSpaceOnUse">
<stop offset="0.145833" stop-color="#3ABEBE"/>
<stop offset="1" stop-color="#17919A"/>
</linearGradient>
<linearGradient id="paint1_linear_303_5050" x1="166.045" y1="21.2304" x2="158.011" y2="31.0455" gradientUnits="userSpaceOnUse">
<stop stop-color="#FFF068"/>
<stop offset="1" stop-color="#FFB950"/>
</linearGradient>
<linearGradient id="paint2_linear_303_5050" x1="233.653" y1="71.0515" x2="244.724" y2="79.2629" gradientUnits="userSpaceOnUse">
<stop stop-color="#F6DBC8"/>
<stop offset="1" stop-color="#E4A097"/>
</linearGradient>
<linearGradient id="paint3_linear_303_5050" x1="246.393" y1="76.8351" x2="290.989" y2="110.155" gradientUnits="userSpaceOnUse">
<stop stop-color="#D9D9D9"/>
<stop offset="0.0001" stop-color="#FEB34C"/>
<stop offset="1" stop-color="#F36B5F"/>
</linearGradient>
<linearGradient id="paint4_linear_303_5050" x1="241.186" y1="83.9157" x2="286.236" y2="117.339" gradientUnits="userSpaceOnUse">
<stop stop-color="#3E83AC"/>
<stop offset="1" stop-color="#2F6797"/>
</linearGradient>
<linearGradient id="paint5_linear_303_5050" x1="242.862" y1="81.835" x2="287.48" y2="114.845" gradientUnits="userSpaceOnUse">
<stop stop-color="#45A8B5"/>
<stop offset="1" stop-color="#3E85AE"/>
</linearGradient>
<linearGradient id="paint6_linear_303_5050" x1="289.454" y1="107.931" x2="289.428" y2="117.411" gradientUnits="userSpaceOnUse">
<stop stop-color="#EAB7AC"/>
<stop offset="1" stop-color="#F7DCC9"/>
</linearGradient>
<linearGradient id="paint7_linear_303_5050" x1="173.491" y1="-27.6015" x2="173.491" y2="141.293" gradientUnits="userSpaceOnUse">
<stop stop-color="white"/>
<stop offset="1" stop-color="white" stop-opacity="0"/>
</linearGradient>
<clipPath id="clip0_303_5050">
<rect width="12.6935" height="12.6951" fill="white" transform="matrix(0.773819 0.633407 -0.632938 0.774203 161.139 17.2002)"/>
</clipPath>
</defs>
</svg>
